<svg width="21" height="21" viewBox="0 0 21 21" fill="none" xmlns="http://www.w3.org/2000/svg">
<g clip-path="url(#clip0_616_3387)">
<path d="M12.9762 5.98742C12.6751 5.73047 12.314 5.53016 11.8927 5.38688C11.4712 5.24359 11.0059 5.17188 10.4966 5.17188C10.0149 5.17188 9.57165 5.25027 9.16653 5.4073C8.76126 5.5643 8.40602 5.78848 8.1004 6.07961C7.79477 6.3709 7.54696 6.72352 7.35715 7.1375C7.23583 7.40211 7.14383 7.68711 7.08114 7.99242C7.02407 8.27094 7.247 8.52969 7.53598 8.52969H8.37434C8.68208 8.52969 8.94395 8.32293 9.02665 8.03164C9.272 7.16707 9.76669 6.73481 10.5106 6.73481C10.7327 6.73481 10.9354 6.77004 11.1183 6.84055C11.3011 6.91121 11.4586 7.01008 11.5906 7.1375C11.7225 7.26492 11.8256 7.41383 11.8997 7.58445C11.9737 7.7552 12.0108 7.94289 12.0108 8.1475C12.0108 8.25676 12.0025 8.35809 11.9865 8.45133C11.9702 8.54469 11.9275 8.6448 11.8579 8.7516C11.7884 8.85855 11.6854 8.98141 11.5489 9.12012C11.4122 9.25898 11.2259 9.42621 10.9898 9.62184C10.4434 10.0677 10.066 10.5 9.85758 10.9185C9.7511 11.1325 9.6736 11.4214 9.62489 11.7854C9.57684 12.1458 9.55028 12.2999 9.54524 12.8109C9.54524 12.8137 9.54508 12.816 9.54508 12.8187H9.54524C9.54524 12.821 9.54508 12.8227 9.54508 12.825H11.344C11.344 12.0605 11.3972 11.8582 11.5037 11.6351C11.5545 11.5216 11.6565 11.3861 11.8093 11.2291C11.9621 11.072 12.1635 10.8912 12.4136 10.6865C12.9204 10.2762 13.2765 9.89375 13.4993 9.53562C13.5013 9.53242 13.5033 9.52938 13.5052 9.52617C13.5345 9.4784 13.5701 9.42973 13.5944 9.38289C13.8167 8.98707 13.9278 8.54809 13.9278 8.06574C13.9278 7.64723 13.8444 7.26039 13.6777 6.90547C13.511 6.55047 13.2771 6.24453 12.9762 5.98742Z" fill="#1966CC"/>
<path d="M11.4149 13.5605H9.55751C9.49325 13.5605 9.44122 13.6118 9.44122 13.6748V15.4714C9.44122 15.5346 9.49325 15.5859 9.55751 15.5859H11.4149C11.4792 15.5859 11.5314 15.5346 11.5314 15.4714V13.6748C11.5313 13.6118 11.4792 13.5605 11.4149 13.5605Z" fill="#1966CC"/>
<path d="M10.5 0.378906C4.97711 0.378906 0.5 4.85602 0.5 10.3789C0.5 15.9018 4.97711 20.3789 10.5 20.3789C16.0229 20.3789 20.5 15.9018 20.5 10.3789C20.5 4.85602 16.0229 0.378906 10.5 0.378906ZM10.5 17.8789C6.36457 17.8789 3 14.5143 3 10.3789C3 6.24348 6.36457 2.87891 10.5 2.87891C14.6354 2.87891 18 6.24348 18 10.3789C18 14.5143 14.6354 17.8789 10.5 17.8789Z" fill="#1966CC"/>
</g>
<defs>
<clipPath id="clip0_616_3387">
<rect width="20" height="20" fill="white" transform="translate(0.5 0.378906)"/>
</clipPath>
</defs>
</svg>
