<svg width="16" height="16" viewBox="0 0 16 16" fill="none" xmlns="http://www.w3.org/2000/svg">
<g clip-path="url(#clip0_520_1998)">
<path d="M14.9549 10.1734L13.715 9.20672C13.2413 8.83731 12.6493 8.63384 12.0484 8.63384C11.369 8.63384 10.718 8.88616 10.2153 9.34441C10.147 9.40669 10.083 9.46634 10.023 9.52347C9.43355 9.12919 8.47202 8.30228 8.10773 7.92303L8.09261 7.90731L8.07698 7.89228C7.6977 7.52803 6.87092 6.56647 6.47655 5.977C6.5338 5.91706 6.59348 5.85297 6.65573 5.78463C7.55086 4.80269 7.60873 3.33091 6.7933 2.28503L5.82664 1.04516C5.30895 0.380969 4.52892 0 3.68676 0C3.46301 0 3.23936 0.0279375 3.02195 0.082875C2.50392 0.21375 1.77261 0.698219 1.27773 1.12022C0.398233 1.87009 -0.0311108 2.62266 0.00188917 3.35703C0.0139517 3.62778 0.0850141 4.04025 0.519952 5.04672C2.55008 9.74453 6.25551 13.45 10.9535 15.4801C11.9597 15.915 12.3723 15.9861 12.643 15.9982C12.6686 15.9994 12.6946 16 12.7203 16C14.2905 16 15.7271 13.7303 15.9173 12.978C16.1808 11.9356 15.803 10.8346 14.9549 10.1734ZM3.68676 1.08119C4.18248 1.08119 4.66039 1.30738 4.97411 1.70984L5.94077 2.94969C6.43064 3.57812 6.39364 4.4675 5.8568 5.05638C5.63817 5.29613 5.42345 5.51244 5.27355 5.62731C4.8363 5.96153 6.87373 8.23556 7.32811 8.67197C7.72276 9.08287 9.61948 10.7877 10.2267 10.7877C10.291 10.7877 10.3408 10.7685 10.3729 10.7266C10.4876 10.5765 10.704 10.3619 10.9437 10.1434C11.2555 9.85906 11.6515 9.71494 12.0484 9.71494C12.4012 9.71494 12.7547 9.82881 13.0504 10.0594L14.2902 11.026C14.8006 11.4239 15.0278 12.0858 14.869 12.7132C14.742 13.2161 13.5845 14.9189 12.7203 14.9189C12.7106 14.9189 12.7009 14.9188 12.6915 14.9183C12.4415 14.9071 11.972 14.7427 11.3823 14.4878C6.95883 12.5762 3.42383 9.04125 1.5122 4.61791C1.25745 4.02809 1.09301 3.55847 1.08176 3.30872C1.04295 2.44166 2.7783 1.25953 3.28683 1.131C3.41955 1.09741 3.55386 1.08119 3.68676 1.08119Z" fill="white"/>
</g>
<defs>
<clipPath id="clip0_520_1998">
<rect width="16" height="16" fill="white"/>
</clipPath>
</defs>
</svg>
